# xmcd
#
# Track frame offsets: 
#        150
#        15273
#        28153
#        44101
#        56983
#        72522
#        88573
#        103225
#        116899
#        133450
#        144188
#        160979
#        177684
#        195746
#        213313
#        228654
#        243275
#        261049
#
# Disc length: 3668 seconds
#
# Revision: 2
# Processed by: cddbd v1.5.2PL0 Copyright (c) Steve Scherf et al.
# Submitted via: ExactAudioCopyFreeDBPlugin 1.0
#
DISCID=180e5212
DTITLE=Ray Charles - Singular Genius:  The Complete ABC Singles (1959-
DTITLE=1970)
DYEAR=2011
DGENRE=Soul
TTITLE0=Laughin' and Clownin'
TTITLE1=That Thing Called Love
TTITLE2=Till I Can't Take it Anymore
TTITLE3=If You Were Mine
TTITLE4=Don't Change on Me
TTITLE5=Sweet Memories
TTITLE6=Feel So Bad
TTITLE7=Your Love is So Doggone Good
TTITLE8=What Am I Living For
TTITLE9=Tired of My Tears
TTITLE10=Look What They've Done to My Song, Ma
TTITLE11=America the Beautiful
TTITLE12=Hey Mister
TTITLE13=There'll Be No Peace Without All Men as One
TTITLE14=Every Saturday Night
TTITLE15=Take Me Home, Country Roads
TTITLE16=I Can Make It Thru the Days (But Oh Those Lonely Nights)
TTITLE17=Ring of Fire
EXTD=
EXTT0=
EXTT1=
EXTT2=
EXTT3=
EXTT4=
EXTT5=
EXTT6=
EXTT7=
EXTT8=
EXTT9=
EXTT10=
EXTT11=
EXTT12=
EXTT13=
EXTT14=
EXTT15=
EXTT16=
EXTT17=
PLAYORDER=
